<svg width="38" height="35" viewBox="0 0 38 35" fill="none" xmlns="http://www.w3.org/2000/svg">
<g id="gpay icon">
<path id="Vector" d="M33.9693 6.99205C33.5531 6.83939 33.1438 6.70759 32.7413 6.59667C32.4872 6.52634 32.2234 6.48603 31.9498 6.47574C31.5737 6.46145 31.3065 6.46345 31.148 6.48174C28.9001 6.73561 27.2598 7.92861 26.2272 10.0607C26.158 10.1476 26.0838 10.2654 26.0046 10.4141C23.6753 14.7767 21.3175 19.1899 18.9311 23.6537C18.5308 24.4021 18.25 24.8967 18.0889 25.1374C17.4762 26.054 16.596 26.6461 15.4483 26.9136C14.8599 27.0509 14.2092 27.0226 13.4961 26.8287C13.1581 26.7367 12.7331 26.5297 12.2213 26.2078C11.831 25.9625 11.4304 25.7084 11.0195 25.4453C10.8457 25.3344 10.7271 25.2515 10.6637 25.1966C10.651 25.1474 10.6526 25.1083 10.6685 25.0791C11.0752 24.345 11.4856 23.5945 11.8997 22.8278C12.1902 22.2903 12.4791 21.7517 12.7664 21.212C13.2851 20.2371 13.7536 19.358 14.1719 18.5747C14.2073 18.5083 14.243 18.4414 14.2789 18.374C14.8615 17.2785 15.4435 16.1912 16.0251 15.1123C16.1972 14.7927 16.3594 14.4754 16.5115 14.1603C16.9972 13.1552 17.0503 11.9356 16.643 10.8858C16.4302 10.3375 16.118 9.85147 15.7066 9.42779C15.5238 9.23967 15.0925 8.93349 14.4128 8.50924C13.8915 8.18447 13.3654 7.85856 12.8346 7.53151C13.2106 6.83167 13.5827 6.13268 13.9509 5.43455C14.853 3.72439 16.1048 2.43676 17.7063 1.57167C18.6879 1.04079 19.9547 0.68486 21.0932 0.625681C22.4512 0.555354 23.7762 0.84324 25.0681 1.48934C25.3338 1.62256 25.7365 1.85699 26.2763 2.19262C27.5038 2.95764 28.6703 3.68122 29.7758 4.36334C30.9098 5.06261 32.0021 5.73301 33.0526 6.37454C33.1863 6.45573 33.4918 6.66157 33.9693 6.99205Z" fill="#2DAA4F"/>
<path id="Vector_2" d="M9.93806 6.03059C9.9238 6.04946 9.91006 6.06432 9.89686 6.07519C9.88049 6.08891 9.86174 6.09463 9.84061 6.09234C9.82582 6.09063 9.81129 6.08948 9.79703 6.08891C9.75267 6.0872 9.75108 6.09491 9.79228 6.11207C9.8076 6.11836 9.82133 6.11493 9.83348 6.10178C9.8451 6.08805 9.85804 6.08634 9.8723 6.09663L9.94994 6.15238C9.96526 6.16324 9.9679 6.17668 9.95787 6.19269C9.94519 6.21441 9.92697 6.22499 9.9032 6.22442C9.87098 6.22442 9.84959 6.24072 9.83902 6.27331L9.70592 6.68927C9.69642 6.71786 9.69589 6.74673 9.70434 6.77589C9.72652 6.85422 9.71305 6.91855 9.66393 6.96886C9.63435 6.99974 9.61402 7.03605 9.60293 7.07779C9.55777 7.24331 9.56331 7.41742 9.50151 7.57523C9.27387 8.15043 9.08636 8.6896 8.939 9.19276C8.88301 9.3843 8.8257 9.5747 8.76708 9.76396C8.70792 9.95665 8.65695 10.1465 8.61416 10.3334C8.55395 10.5965 8.49057 10.8492 8.42402 11.0916C8.39444 11.2008 8.35166 11.3075 8.29567 11.4115C8.23757 11.5201 8.1932 11.6288 8.16257 11.7374C8.14989 11.7826 8.15148 11.8283 8.16732 11.8746C8.17177 11.888 8.17337 11.9023 8.17199 11.9165C8.17062 11.9306 8.16631 11.9441 8.1594 11.9561C8.10869 12.0442 8.08255 12.1437 8.08096 12.2546C8.08044 12.2878 8.0675 12.3135 8.04214 12.3318C7.9608 12.3907 7.92594 12.467 7.93756 12.5608C7.94073 12.5888 7.93492 12.6142 7.92013 12.6371C7.90376 12.6623 7.89848 12.6891 7.90429 12.7177C7.90651 12.7292 7.90505 12.7411 7.90015 12.7516C7.89526 12.762 7.88721 12.7704 7.87735 12.7752C7.8615 12.7832 7.84513 12.7846 7.82823 12.7795C7.82242 12.7778 7.82004 12.7803 7.8211 12.7872C7.82215 12.7958 7.82506 12.8035 7.82981 12.8103C7.83879 12.8229 7.84038 12.8369 7.83457 12.8524C7.73157 13.1211 7.66159 13.3152 7.62461 13.4347C7.59503 13.5285 7.57391 13.6366 7.56123 13.7589C7.55806 13.7875 7.54908 13.8138 7.53429 13.8378C7.4894 13.911 7.46008 13.9908 7.44635 14.0771C7.43288 14.162 7.39485 14.2349 7.36237 14.313C7.35286 14.3353 7.35128 14.3584 7.35762 14.3824C7.36765 14.423 7.3592 14.4585 7.33226 14.4888C7.32276 14.4991 7.3151 14.5105 7.30929 14.5231C7.30242 14.5379 7.30268 14.5497 7.31008 14.5582C7.33015 14.5811 7.32962 14.6034 7.3085 14.6251C7.24406 14.692 7.21712 14.7712 7.22768 14.8627C7.23138 14.8953 7.22557 14.9259 7.21025 14.9545L7.1437 15.0797C7.13793 15.0903 7.13418 15.102 7.13269 15.1143C7.13119 15.1265 7.13197 15.1389 7.13499 15.1509C7.16615 15.2744 7.15664 15.3882 7.10646 15.4922C7.09537 15.5162 7.08956 15.5414 7.08903 15.5677C7.08851 15.6272 7.07002 15.6783 7.03358 15.7212C7.02391 15.7328 7.01671 15.7464 7.01246 15.7612C7.00822 15.7761 7.00704 15.7917 7.00902 15.807C7.02169 15.9111 7.00849 16.0148 6.9694 16.1183C6.9525 16.1641 6.93032 16.2064 6.90285 16.2453C6.87538 16.283 6.86403 16.3247 6.86878 16.3705C6.87195 16.3996 6.86773 16.4276 6.85611 16.4545C6.81121 16.5569 6.77318 16.6618 6.74202 16.7693C6.71983 16.8456 6.67626 16.9005 6.62951 16.9597C6.6142 16.9791 6.60601 17.0017 6.60495 17.0274C6.59756 17.1692 6.54236 17.3036 6.43937 17.4305C6.38074 17.5026 6.34746 17.5912 6.33954 17.6964C6.33696 17.7275 6.32434 17.7566 6.30389 17.7787C6.22361 17.8639 6.18531 17.9677 6.18901 18.0901C6.18954 18.1204 6.17924 18.1452 6.15811 18.1647C6.11216 18.2064 6.09209 18.2593 6.0979 18.3233C6.09987 18.3447 6.0974 18.3663 6.09068 18.3865C6.08396 18.4067 6.07316 18.425 6.05908 18.44C6.02422 18.4766 6.01497 18.52 6.03135 18.5704C6.03708 18.5868 6.03956 18.6044 6.0386 18.6219C6.03765 18.6395 6.03328 18.6567 6.0258 18.6724L5.8824 18.9803C5.86815 19.0105 5.86559 19.0457 5.87527 19.0781C5.89217 19.1381 5.87342 19.1807 5.81902 19.2059C5.79895 19.215 5.79657 19.2282 5.81189 19.2453L5.83011 19.2642C5.85546 19.2922 5.85335 19.3177 5.82377 19.3405C5.77782 19.3765 5.75088 19.4266 5.74296 19.4906C5.72289 19.6519 5.64788 19.836 5.51795 20.0429C5.50316 20.067 5.49392 20.093 5.49022 20.121C5.48336 20.169 5.46461 20.2076 5.43397 20.2368C5.4102 20.2591 5.39726 20.2871 5.39515 20.3208C5.38987 20.4152 5.3484 20.4606 5.27076 20.4572C5.26668 20.4569 5.26259 20.4576 5.25877 20.4592C5.25495 20.4608 5.2515 20.4633 5.24865 20.4665C5.24579 20.4696 5.2436 20.4734 5.24222 20.4776C5.24084 20.4818 5.24031 20.4862 5.24065 20.4906C5.24963 20.6439 5.23907 20.7611 5.20896 20.8423C5.14875 21.0024 5.10095 21.1665 5.06556 21.3346C5.05183 21.3998 5.02912 21.4601 4.99743 21.5155C4.94831 21.6007 4.91899 21.6585 4.90948 21.6888C4.81071 21.9953 4.70455 22.2986 4.59099 22.5988C4.56722 22.6631 4.58148 22.7163 4.5593 22.7806C4.54979 22.8092 4.55032 22.8375 4.56088 22.8655C4.57937 22.9124 4.56643 22.9498 4.52206 22.9778C4.4946 22.995 4.47637 23.0201 4.46739 23.0533C4.4431 23.1425 4.4188 23.2306 4.39451 23.3175C4.37338 23.3952 4.34169 23.4796 4.29943 23.5705C4.23975 23.698 4.18772 23.8292 4.14335 23.9641C4.14124 23.9704 4.1423 23.9761 4.14652 23.9813C4.15128 23.987 4.15497 23.9939 4.15761 24.0019C4.1592 24.0059 4.15894 24.0099 4.15682 24.0139C4.09872 24.1197 4.03983 24.2172 3.98014 24.3063C3.97064 24.3206 3.96615 24.3361 3.96668 24.3527C3.96879 24.3801 3.96324 24.4055 3.95004 24.429C3.90409 24.5102 3.86104 24.5911 3.8209 24.6717C3.78128 24.7512 3.75197 24.8384 3.73295 24.9333C3.68066 25.194 3.61279 25.449 3.52934 25.6983C3.49078 25.8138 3.45619 25.927 3.42555 26.038C3.39703 26.1426 3.35953 26.2481 3.31305 26.3544C3.22695 26.5523 3.14218 26.7509 3.05873 26.9505C3.05239 26.9654 3.05318 26.9794 3.0611 26.9925C3.06744 27.004 3.06718 27.0151 3.06031 27.026C2.99746 27.1197 2.94068 27.2138 2.88997 27.3081C2.87202 27.3415 2.86478 27.3801 2.86937 27.4179C2.88205 27.5185 2.8736 27.614 2.84402 27.7044C2.81708 27.785 2.81999 27.8593 2.85274 27.9274C2.86805 27.96 2.85934 27.9728 2.82659 27.966C2.76638 27.9528 2.73099 27.97 2.72043 28.0174C1.69364 26.9362 0.960518 25.6674 0.521069 24.2111C0.331715 23.5825 0.215249 22.8912 0.0845239 22.2454C-0.0353739 21.6519 -0.0277145 21.0553 0.107501 20.4555C0.210496 19.9981 0.262258 19.7668 0.262786 19.7616C0.461647 18.6441 0.85224 17.5746 1.38623 16.5832C2.75898 14.0336 4.20938 11.3275 5.73741 8.46461C5.86576 8.22447 5.99543 7.99433 6.12642 7.7742C6.61684 6.95428 7.44952 6.27159 8.37173 6.05289C8.91048 5.92596 9.38901 5.88993 9.93806 6.03059Z" fill="#2D7CEE"/>
<path id="Vector_3" d="M9.93834 6.03061C10.3165 6.10036 10.672 6.2373 11.0047 6.44143C11.5562 6.77934 12.1057 7.12126 12.6535 7.46718C12.7248 7.51178 12.785 7.53322 12.8341 7.5315C13.3649 7.85856 13.891 8.18447 14.4123 8.50923C15.0921 8.93348 15.5234 9.23967 15.7061 9.42778C16.1176 9.85146 16.4297 10.3375 16.6426 10.8858C17.0498 11.9356 16.9967 13.1551 16.5111 14.1603C16.3589 14.4754 16.1968 14.7927 16.0246 15.1123C15.4431 16.1912 14.861 17.2785 14.2784 18.374C14.2425 18.4414 14.2069 18.5083 14.1715 18.5747C13.7531 19.358 13.2846 20.2371 12.766 21.2119C12.4786 21.7517 12.1897 22.2903 11.8992 22.8278C11.4851 23.5945 11.0747 24.345 10.668 25.0791C10.6522 25.1083 10.6506 25.1474 10.6633 25.1966C10.6353 25.2018 10.6126 25.2223 10.5951 25.2584C10.3939 25.676 10.1871 26.1237 10.0643 26.5723C9.61271 28.219 9.67768 29.8179 10.2592 31.3691C10.6131 32.3154 11.1513 33.1405 11.8739 33.8443C12.0122 33.9793 12.1512 34.1148 12.2906 34.2509C12.0841 34.1468 11.8844 34.035 11.6916 33.9155C8.28274 31.8 5.77044 30.2302 4.15472 29.2061C3.66562 28.8962 3.18762 28.5 2.7207 28.0174C2.73127 27.97 2.76665 27.9528 2.82687 27.966C2.85962 27.9728 2.86833 27.96 2.85301 27.9274C2.82027 27.8593 2.81736 27.785 2.8443 27.7044C2.87388 27.614 2.88233 27.5186 2.86965 27.4179C2.86506 27.3801 2.8723 27.3415 2.89025 27.3082C2.94096 27.2138 2.99774 27.1198 3.06059 27.026C3.06746 27.0151 3.06772 27.004 3.06138 26.9925C3.05346 26.9794 3.05267 26.9654 3.05901 26.9505C3.14246 26.751 3.22723 26.5523 3.31333 26.3544C3.35981 26.2481 3.39731 26.1426 3.42583 26.038C3.45646 25.927 3.49106 25.8138 3.52962 25.6983C3.61307 25.449 3.68094 25.194 3.73323 24.9333C3.75225 24.8384 3.78156 24.7512 3.82117 24.6717C3.86132 24.5911 3.90436 24.5102 3.95032 24.429C3.96352 24.4056 3.96907 24.3801 3.96695 24.3527C3.96642 24.3361 3.97091 24.3207 3.98042 24.3064C4.04011 24.2172 4.099 24.1197 4.1571 24.0139C4.15921 24.0099 4.15948 24.0059 4.15789 24.0019C4.15525 23.9939 4.15155 23.987 4.1468 23.9813C4.14257 23.9762 4.14152 23.9704 4.14363 23.9642C4.188 23.8292 4.24002 23.698 4.29971 23.5705C4.34196 23.4796 4.37365 23.3952 4.39478 23.3175C4.41908 23.2306 4.44338 23.1425 4.46767 23.0533C4.47665 23.0202 4.49487 22.995 4.52234 22.9779C4.56671 22.9498 4.57965 22.9124 4.56116 22.8655C4.5506 22.8375 4.55007 22.8092 4.55957 22.7806C4.58176 22.7163 4.5675 22.6631 4.59127 22.5988C4.70483 22.2986 4.81099 21.9953 4.90976 21.6888C4.91927 21.6585 4.94858 21.6007 4.9977 21.5156C5.0294 21.4601 5.05211 21.3998 5.06584 21.3346C5.10123 21.1665 5.14903 21.0024 5.20924 20.8423C5.23935 20.7611 5.24991 20.6439 5.24093 20.4907C5.24058 20.4862 5.24112 20.4818 5.2425 20.4776C5.24388 20.4735 5.24607 20.4697 5.24892 20.4665C5.25178 20.4633 5.25523 20.4608 5.25905 20.4592C5.26286 20.4576 5.26695 20.4569 5.27104 20.4572C5.34868 20.4606 5.39014 20.4152 5.39543 20.3208C5.39754 20.2871 5.41048 20.2591 5.43425 20.2368C5.46488 20.2076 5.48363 20.169 5.4905 20.121C5.4942 20.093 5.50344 20.067 5.51823 20.043C5.64816 19.836 5.72316 19.6519 5.74323 19.4906C5.75116 19.4266 5.7781 19.3766 5.82405 19.3405C5.85363 19.3177 5.85574 19.2922 5.83039 19.2642L5.81216 19.2453C5.79685 19.2282 5.79922 19.215 5.81929 19.2059C5.8737 19.1807 5.89245 19.1381 5.87554 19.0781C5.86586 19.0457 5.86843 19.0105 5.88268 18.9803L6.02608 18.6724C6.03356 18.6567 6.03792 18.6395 6.03888 18.622C6.03983 18.6044 6.03736 18.5868 6.03162 18.5704C6.01525 18.5201 6.02449 18.4766 6.05935 18.44C6.07344 18.425 6.08424 18.4067 6.09096 18.3865C6.09768 18.3663 6.10014 18.3448 6.09818 18.3234C6.09237 18.2593 6.11244 18.2064 6.15839 18.1647C6.17952 18.1453 6.18981 18.1204 6.18929 18.0901C6.18559 17.9677 6.22388 17.8639 6.30417 17.7788C6.32462 17.7566 6.33724 17.7275 6.33982 17.6964C6.34774 17.5912 6.38102 17.5026 6.43965 17.4305C6.54264 17.3036 6.59784 17.1692 6.60523 17.0275C6.60629 17.0017 6.61447 16.9791 6.62979 16.9597C6.67654 16.9005 6.72011 16.8456 6.74229 16.7693C6.77346 16.6618 6.81149 16.5569 6.85638 16.4545C6.868 16.4277 6.87223 16.3996 6.86906 16.3705C6.86431 16.3247 6.87566 16.283 6.90313 16.2453C6.93059 16.2064 6.95278 16.1641 6.96968 16.1183C7.00876 16.0148 7.02197 15.9111 7.00929 15.807C7.00732 15.7917 7.0085 15.7761 7.01274 15.7612C7.01698 15.7464 7.02419 15.7328 7.03385 15.7212C7.0703 15.6784 7.08878 15.6272 7.08931 15.5677C7.08984 15.5414 7.09565 15.5163 7.10674 15.4923C7.15692 15.3882 7.16643 15.2744 7.13526 15.1509C7.13225 15.139 7.13147 15.1265 7.13296 15.1143C7.13446 15.1021 7.13821 15.0903 7.14398 15.0797L7.21053 14.9545C7.22585 14.9259 7.23166 14.8953 7.22796 14.8627C7.2174 14.7712 7.24433 14.6921 7.30877 14.6252C7.3299 14.6034 7.33043 14.5811 7.31036 14.5583C7.30296 14.5497 7.3027 14.538 7.30956 14.5231C7.31537 14.5105 7.32303 14.4991 7.33254 14.4888C7.35948 14.4585 7.36793 14.423 7.35789 14.3824C7.35156 14.3584 7.35314 14.3353 7.36265 14.313C7.39513 14.2349 7.43316 14.162 7.44663 14.0771C7.46036 13.9908 7.48968 13.911 7.53457 13.8378C7.54936 13.8138 7.55834 13.7875 7.56151 13.7589C7.57419 13.6366 7.59531 13.5285 7.62489 13.4347C7.66186 13.3152 7.73185 13.1211 7.83484 12.8524C7.84065 12.837 7.83907 12.8229 7.83009 12.8104C7.82534 12.8035 7.82243 12.7958 7.82138 12.7872C7.82032 12.7803 7.8227 12.7778 7.82851 12.7795C7.84541 12.7846 7.86178 12.7832 7.87763 12.7752C7.88749 12.7704 7.89553 12.762 7.90043 12.7516C7.90533 12.7412 7.90679 12.7292 7.90456 12.7177C7.89875 12.6891 7.90404 12.6623 7.92041 12.6371C7.9352 12.6142 7.94101 12.5888 7.93784 12.5608C7.92622 12.467 7.96108 12.3907 8.04242 12.3318C8.06777 12.3135 8.08071 12.2878 8.08124 12.2546C8.08283 12.1437 8.10897 12.0442 8.15968 11.9561C8.16659 11.9441 8.1709 11.9306 8.17227 11.9165C8.17364 11.9024 8.17205 11.8881 8.1676 11.8747C8.15175 11.8284 8.15017 11.7826 8.16285 11.7374C8.19348 11.6288 8.23785 11.5202 8.29595 11.4115C8.35193 11.3075 8.39472 11.2008 8.4243 11.0916C8.49085 10.8492 8.55423 10.5965 8.61444 10.3335C8.65722 10.1465 8.7082 9.95666 8.76735 9.76398C8.82598 9.57472 8.88329 9.38432 8.93928 9.19278C9.08664 8.68962 9.27414 8.15044 9.50179 7.57524C9.56359 7.41744 9.55804 7.24333 9.6032 7.0778C9.61429 7.03607 9.63463 6.99976 9.66421 6.96888C9.71333 6.91857 9.7268 6.85424 9.70461 6.77591C9.69616 6.74675 9.69669 6.71788 9.7062 6.68929L9.8393 6.27333C9.84987 6.24073 9.87126 6.22444 9.90348 6.22444C9.92724 6.22501 9.94547 6.21443 9.95814 6.19271C9.96818 6.1767 9.96554 6.16326 9.95022 6.1524L9.87258 6.09665C9.85831 6.08636 9.84538 6.08807 9.83376 6.10179C9.82161 6.11495 9.80788 6.11838 9.79256 6.11209C9.75136 6.09493 9.75294 6.08721 9.79731 6.08893C9.81157 6.0895 9.8261 6.09065 9.84089 6.09236C9.86201 6.09465 9.88076 6.08893 9.89714 6.07521C9.91034 6.06434 9.92408 6.04948 9.93834 6.03061Z" fill="#2D7CEE"/>
<path id="Vector_4" d="M33.9682 6.99205C34.5382 7.32939 34.9557 7.61299 35.2208 7.84284C36.4304 8.88975 37.2536 10.2434 37.6904 11.9038C37.8937 12.6769 37.9798 13.4059 37.9486 14.0909C37.9365 14.3482 37.9006 14.5869 37.8409 14.807C37.7553 15.1243 37.7221 15.4571 37.6254 15.7727C37.4183 16.4457 37.2079 16.982 36.994 17.3817C35.233 20.6728 33.4725 23.9647 31.7126 27.2576C31.0656 28.4686 30.0927 29.219 28.7939 29.5089C28.5942 29.5541 28.2924 29.5801 27.8883 29.5869C27.5677 29.5927 27.2738 29.5572 27.0065 29.4806C26.566 29.3554 26.2013 29.205 25.9124 29.0295C25.2659 28.6384 24.6183 28.2427 23.9697 27.8425C23.9829 27.7813 24.0233 27.6875 24.0909 27.5612C25.8704 24.2329 27.6493 20.9049 29.4277 17.5772C29.9432 16.6126 30.1112 15.5532 29.9316 14.3988C29.7565 13.2761 29.0799 12.0985 28.2155 11.475C27.8004 11.1754 27.1615 10.7694 26.299 10.2571C26.2383 10.2211 26.214 10.1557 26.2261 10.0607C27.2587 7.92861 28.899 6.73561 31.147 6.48175C31.3054 6.46345 31.5727 6.46145 31.9487 6.47574C32.2223 6.48604 32.4862 6.52634 32.7402 6.59667C33.1427 6.7076 33.552 6.83939 33.9682 6.99205Z" fill="#E94134"/>
<path id="Vector_5" d="M26.0845 8.81506C26.0724 8.90998 26.0967 8.97544 26.1574 9.01147C27.0199 9.52377 27.6588 9.92973 28.0739 10.2293C28.9383 10.8528 29.6149 12.0304 29.79 13.1531C29.9696 14.3075 29.8016 15.367 29.2861 16.3315C27.5077 19.6592 25.7288 22.9872 23.9493 26.3155C23.8817 26.4419 23.8413 26.5356 23.8281 26.5968C23.7858 26.6197 23.7557 26.6488 23.7378 26.6843C23.1742 27.7707 22.6006 28.851 22.017 29.9254C21.3792 31.0978 20.6669 32.1295 19.6021 32.8886C18.6133 33.593 17.5285 34.0092 16.3474 34.1373C14.8553 34.2985 13.4556 33.9212 12.1484 33.0052C12.0089 32.8691 11.87 32.7336 11.7316 32.5987C11.0091 31.8948 10.4709 31.0698 10.117 30.1235C9.53545 28.5723 9.47048 26.9733 9.92208 25.3266C10.0449 24.8781 10.2517 24.4304 10.4529 24.0127C10.4703 23.9767 10.493 23.9561 10.521 23.9509C10.5844 24.0058 10.703 24.0887 10.8768 24.1997C11.2877 24.4627 11.6883 24.7168 12.0787 24.9621C12.5905 25.284 13.0154 25.491 13.3534 25.5831C14.0665 25.7769 14.7172 25.8052 15.3056 25.668C16.4533 25.4004 17.3336 24.8083 17.9462 23.8918C18.1073 23.6511 18.3881 23.1565 18.7884 22.408C21.1748 17.9442 23.5326 13.531 25.8619 9.16842C25.9411 9.01976 26.0153 8.90197 26.0845 8.81506Z" fill="#FDBE01"/>
</g>
</svg>
